<svg width="82.877686" height="19.240234" viewBox="0 0 82.8777 19.2402" fill="none" xmlns="http://www.w3.org/2000/svg" xmlns:xlink="http://www.w3.org/1999/xlink">
	<desc>
			Created with Pixso.
	</desc>
	<defs/>
	<path id="UI.desk" d="M6.65595 19.24C10.4779 19.24 13.3119 16.666 13.3119 12.584L13.3119 -1.90735e-05L10.5039 -1.90735e-05L10.5039 12.766C10.5039 14.872 8.81395 16.588 6.62995 16.588C4.47195 16.588 2.83395 14.872 2.83395 12.766L2.83395 -1.90735e-05L-5.26905e-05 -1.90735e-05L-5.26905e-05 12.584C-5.26905e-05 16.666 2.80795 19.24 6.65595 19.24ZM16.357 18.98L19.191 18.98L19.191 -1.90735e-05L16.357 -1.90735e-05L16.357 18.98ZM22.1121 18.98L24.8941 18.98L24.8941 15.418L22.1121 15.418L22.1121 18.98ZM33.5282 19.24C35.2442 19.24 36.8822 18.46 37.8702 17.186L37.8702 18.98L40.6262 18.98L40.6262 -1.90735e-05L37.8702 -1.90735e-05L37.8702 7.66998C36.9082 6.47398 35.2702 5.71998 33.5542 5.71998C30.1482 5.71998 27.0542 8.31998 27.0542 12.48C27.0542 16.614 30.2262 19.24 33.5282 19.24ZM33.9182 16.692C31.6042 16.692 29.8102 14.82 29.8102 12.454C29.8102 10.088 31.6042 8.24198 33.9182 8.24198C36.2842 8.24198 38.0262 10.14 38.0262 12.454C38.0262 14.794 36.2842 16.692 33.9182 16.692ZM49.7111 19.24C52.5971 19.24 54.6511 17.836 55.7951 15.704L53.5071 14.43C52.8311 15.834 51.4791 16.77 49.7111 16.77C47.4491 16.77 45.8891 15.444 45.5251 13.442L56.2891 13.442L56.2891 12.35C56.2891 8.50198 53.4551 5.71998 49.6071 5.71998C45.7851 5.71998 42.8471 8.70998 42.8471 12.532C42.8471 16.302 45.6031 19.24 49.7111 19.24ZM49.6071 8.16398C51.6091 8.16398 53.0391 9.20398 53.4551 11.076L45.6551 11.076C46.1751 9.35998 47.6831 8.16398 49.6071 8.16398ZM63.3075 19.24C66.9995 19.266 68.5595 16.848 68.5595 15.054C68.5595 12.35 66.1415 11.648 64.0095 11.18C62.1375 10.764 60.9415 10.504 60.9415 9.56798C60.9415 8.73598 61.6955 8.00798 63.1775 8.00798C64.4775 8.00798 65.4915 8.57998 66.0895 9.48998L68.4035 8.21598C67.3895 6.65598 65.5955 5.69398 63.1775 5.69398C60.1095 5.66798 58.1595 7.56598 58.1595 9.61998C58.1595 12.298 60.4475 13.026 62.6575 13.494C64.2955 13.832 65.8035 14.066 65.8035 15.106C65.8035 16.016 64.9975 16.822 63.4375 16.822C61.9555 16.822 60.8115 16.12 60.1095 14.924L57.6135 16.224C58.7055 18.148 60.6035 19.24 63.3075 19.24ZM79.7578 18.98L82.8778 18.98L77.6778 11.544L82.7478 5.97998L79.3938 5.97998L73.5438 12.428L73.5438 -1.90735e-05L70.7878 -1.90735e-05L70.7878 18.98L73.5438 18.98L73.5438 15.6L75.7278 13.208L79.7578 18.98Z" fill="#2C3847" fill-opacity="1.000000" fill-rule="evenodd"/>
</svg>

