<svg width="90.925781" height="19.474609" viewBox="0 0 90.9258 19.4746" fill="none" xmlns="http://www.w3.org/2000/svg" xmlns:xlink="http://www.w3.org/1999/xlink">
	<desc>
			Created with Pixso.
	</desc>
	<defs/>
	<path id="UI.desk" d="M2.96436 1.16797L2.96436 12.689Q2.96436 14.7393 4.04346 15.7803Q5.12256 16.8213 7.0459 16.8213Q8.99463 16.8213 10.0737 15.7803Q11.1528 14.7393 11.1528 12.689L11.1528 1.16797L14.1172 1.16797L14.1172 12.6382Q14.1172 14.8472 13.1523 16.3833Q12.1938 17.9131 10.5815 18.6685Q8.96924 19.4238 7.02051 19.4238Q5.07178 19.4238 3.47217 18.6685Q1.87256 17.9131 0.933105 16.3833Q0 14.8472 0 12.6382L0 1.16797L2.96436 1.16797ZM20.9297 1.16797L20.9297 19.2397L17.9654 19.2397L17.9654 1.16797L20.9297 1.16797ZM26.0291 19.4238Q25.2229 19.4238 24.677 18.8779Q24.1311 18.332 24.1311 17.5259Q24.1311 16.7197 24.677 16.1738Q25.2229 15.6279 26.0291 15.6279Q26.8035 15.6279 27.3494 16.1738Q27.9017 16.7197 27.9017 17.5259Q27.9017 18.332 27.3494 18.8779Q26.8035 19.4238 26.0291 19.4238ZM30.1115 12.0098Q30.1115 9.85156 31.0065 8.18848Q31.9015 6.52539 33.4504 5.60498Q34.9992 4.67822 36.8971 4.67822Q38.3 4.67822 39.6647 5.29395Q41.0295 5.90332 41.8356 6.9126L41.8356 0L44.8254 0L44.8254 19.2397L41.8356 19.2397L41.8356 17.0815Q41.1056 18.1226 39.8171 18.8018Q38.5348 19.4746 36.8718 19.4746Q34.9992 19.4746 33.4504 18.5288Q31.9015 17.5767 31.0065 15.8755Q30.1115 14.168 30.1115 12.0098ZM41.8356 12.0669Q41.8356 10.5815 41.2199 9.48975Q40.6105 8.39795 39.6203 7.82666Q38.6364 7.25537 37.4938 7.25537Q36.3512 7.25537 35.361 7.81396Q34.3708 8.37256 33.7614 9.45166Q33.152 10.5308 33.152 12.0098Q33.152 13.4951 33.7614 14.6123Q34.3708 15.7295 35.3737 16.3135Q36.3766 16.8975 37.4938 16.8975Q38.6364 16.8975 39.6203 16.3262Q40.6105 15.7549 41.2199 14.6504Q41.8356 13.5459 41.8356 12.0669ZM61.8567 11.7241Q61.8567 12.5303 61.7488 13.1841L50.8054 13.1841Q50.9324 14.8979 52.075 15.939Q53.2239 16.98 54.887 16.98Q57.28 16.98 58.2639 14.9741L61.4631 14.9741Q60.8157 16.9546 59.1082 18.2178Q57.407 19.4746 54.887 19.4746Q52.8303 19.4746 51.2053 18.5542Q49.5803 17.6274 48.6599 15.9517Q47.7395 14.2759 47.7395 12.0669Q47.7395 9.85156 48.6345 8.17578Q49.5295 6.5 51.1545 5.59229Q52.7795 4.67822 54.887 4.67822Q56.9119 4.67822 58.4988 5.56689Q60.0857 6.44922 60.968 8.04883Q61.8567 9.64844 61.8567 11.7241ZM58.759 10.791Q58.7336 9.15332 57.5911 8.16309Q56.4485 7.17285 54.7537 7.17285Q53.2239 7.17285 52.1321 8.15039Q51.0403 9.12793 50.8308 10.791L58.759 10.791ZM69.9641 19.4746Q68.2757 19.4746 66.9363 18.8652Q65.5969 18.2495 64.8162 17.2021Q64.0418 16.1484 63.9846 14.8472L67.0569 14.8472Q67.1331 15.7549 67.9265 16.3706Q68.72 16.98 69.9133 16.98Q71.1638 16.98 71.8494 16.4976Q72.5413 16.0151 72.5413 15.2598Q72.5413 14.4536 71.7732 14.0664Q71.0051 13.6729 69.3421 13.2095Q67.7298 12.7651 66.7141 12.3525Q65.7048 11.9336 64.9622 11.0767Q64.2195 10.2197 64.2195 8.81689Q64.2195 7.66797 64.8923 6.72217Q65.5715 5.77002 66.8284 5.22412Q68.0916 4.67822 69.7356 4.67822Q72.1795 4.67822 73.6712 5.91602Q75.1692 7.14746 75.2708 9.28027L72.3064 9.28027Q72.2302 8.32178 71.5257 7.75049Q70.8274 7.17285 69.6277 7.17285Q68.4597 7.17285 67.8313 7.61719Q67.2092 8.06152 67.2092 8.78516Q67.2092 9.36279 67.6218 9.75Q68.0408 10.1372 68.6375 10.3594Q69.2405 10.5815 70.4085 10.918Q71.97 11.3369 72.9666 11.7686Q73.9695 12.1938 74.6995 13.0254Q75.4295 13.8569 75.4548 15.2344Q75.4548 16.4595 74.7757 17.4243Q74.1028 18.3828 72.865 18.9287Q71.6336 19.4746 69.9641 19.4746ZM84.3179 12.0923L90.9258 19.2397L86.9204 19.2397L81.6138 13.0762L81.6138 19.2397L78.6494 19.2397L78.6494 0L81.6138 0L81.6138 11.1782L86.8125 4.91309L90.9258 4.91309L84.3179 12.0923Z" fill="#333333" fill-opacity="1.000000" fill-rule="evenodd"/>
</svg>

